<svg width="43" height="33" viewBox="0 0 43 33" fill="none" xmlns="http://www.w3.org/2000/svg">
<g clip-path="url(#clip0_1501_545)">
<path d="M0.135864 0.214966C1.21773 0.798669 2.50346 1.60706 3.8055 2.71585C4.75145 3.5218 5.51257 4.31798 6.11602 5.03601C6.17582 5.19232 6.2329 5.39991 6.25193 5.64658C6.27911 6.03979 6.19213 6.36217 6.11602 6.55999C6.49929 6.85306 7.10818 7.30977 7.88288 7.84463C9.27462 8.80688 9.81012 9.06576 9.85633 9.56154C9.87536 9.76181 9.84002 10.3016 8.69836 11.0196C8.78806 11.1832 8.88048 11.3444 8.97018 11.508C9.0327 11.508 9.12512 11.508 9.24201 11.508C9.64431 11.5007 9.72857 11.469 9.78566 11.508C9.87264 11.5691 9.8808 11.7865 9.51383 12.4849C9.70139 12.5484 9.98137 12.6388 10.3293 12.7292C10.9001 12.8781 11.0415 12.8733 11.1448 12.9734C11.3188 13.1444 11.3242 13.5693 10.6011 14.683V14.9272C10.892 14.9321 11.5906 14.9785 12.2321 15.4157C13.2732 16.1239 13.3248 17.284 13.3194 17.6137C13.3085 18.3757 12.9606 18.9399 12.7757 19.1963C12.5936 19.4821 12.4142 19.7702 12.2321 20.056L10.6011 21.2771C10.5169 21.4408 10.4244 21.602 10.3293 21.7656C9.02726 23.9758 7.09731 25.5413 5.16463 26.6501C5.25433 26.975 5.34675 27.3022 5.43645 27.627C6.40959 27.5293 7.70619 27.5611 8.97018 28.1155C9.72585 28.4476 9.98137 28.7505 10.0575 28.8482C10.8648 29.8788 10.1608 31.332 10.0575 31.5347C10.8621 31.9816 11.6694 32.431 12.474 32.8779H0.135864V0.214966Z" fill="#1E1E1E" stroke="#1E1E1E" stroke-width="1.39961" stroke-miterlimit="10"/>
<path d="M28.2942 32.8779V31.371L26.3669 24.6962C25.4971 24.1589 22.9583 22.4396 22.0177 19.3232C21.591 17.9116 21.629 16.666 21.7459 15.8113V14.3679H17.0461C17.0053 14.3288 16.3094 13.645 16.5813 12.7291C16.8612 11.7888 17.8969 11.5177 17.9404 11.508H23.2056C23.2301 11.2735 23.2763 10.934 23.3769 10.5311C23.4747 10.1452 23.5264 9.9498 23.6487 9.79838C24.0809 9.27085 24.9372 9.30504 25.0078 9.30992C25.1573 9.31725 25.4998 9.33923 25.8233 9.55415C26.1169 9.74953 26.2338 9.9962 26.3669 10.2868C26.4838 10.5384 26.6306 10.956 26.6388 11.508C30.0828 11.5886 33.5241 11.6716 36.9681 11.7522V14.1261L34.2499 14.1945C34.7201 14.2726 35.3698 14.4558 35.8808 14.9272C36.6528 15.6403 36.6555 16.6026 36.6963 17.8579C36.7316 18.9154 36.8023 20.4491 36.9681 22.3883C36.786 22.6692 36.6066 22.95 36.4245 23.2309L36.6963 24.2078H37.5118V25.4363L42.7553 32.8779H28.2942Z" fill="#1E1E1E" stroke="#1E1E1E" stroke-width="1.39961" stroke-miterlimit="10"/>
</g>
<defs>
<clipPath id="clip0_1501_545">
<rect width="43" height="33" fill="white"/>
</clipPath>
</defs>
</svg>
