<?xml version="1.0" encoding="UTF-8"?><svg id="Layer_1" xmlns="http://www.w3.org/2000/svg" width="52.69mm" height="53.82mm" viewBox="0 0 149.35 152.57"><defs><style>.cls-1{fill:#1e1e1e;stroke-width:0px;}</style></defs><path class="cls-1" d="M.5,3.46c3.77,2.27,8.26,5.41,12.8,9.71,3.3,3.13,5.96,6.22,8.06,9.01.21.61.41,1.41.47,2.37.09,1.53-.21,2.78-.47,3.55,1.34,1.14,3.46,2.91,6.16,4.99,4.86,3.74,6.72,4.74,6.88,6.67.07.78-.06,2.87-4.04,5.66.31.64.64,1.26.95,1.9h.95c1.4-.03,1.7-.15,1.9,0,.3.24.33,1.08-.95,3.79.65.25,1.63.6,2.84.95,1.99.58,2.48.56,2.84.95.61.66.63,2.31-1.9,6.64v.95c1.01.02,3.45.2,5.69,1.9,3.63,2.75,3.81,7.25,3.79,8.53-.04,2.96-1.25,5.15-1.9,6.14-.64,1.11-1.26,2.23-1.9,3.34l-5.69,4.74c-.29.64-.62,1.26-.95,1.9-4.54,8.58-11.27,14.66-18.02,18.97.31,1.26.64,2.53.95,3.79,3.39-.38,7.92-.26,12.33,1.9,2.64,1.29,3.53,2.47,3.79,2.84,2.82,4,.36,9.64,0,10.43,2.81,1.74,5.62,3.48,8.43,5.22H.5V3.46Z"/><path class="cls-1" d="M98.73,130.28v-5.85l-6.72-25.92c-3.03-2.09-11.89-8.76-15.17-20.86-1.49-5.48-1.36-10.32-.95-13.64v-5.6h-16.4c-.14-.15-2.57-2.81-1.62-6.36.98-3.65,4.59-4.7,4.74-4.74h18.37c.09-.91.25-2.23.6-3.79.34-1.5.52-2.26.95-2.84,1.51-2.05,4.49-1.92,4.74-1.9.52.03,1.72.11,2.84.95,1.02.76,1.43,1.72,1.9,2.84.41.98.92,2.6.95,4.74,12.01.31,24.02.64,36.03.95v9.22l-9.48.27c1.64.3,3.91,1.01,5.69,2.84,2.69,2.77,2.7,6.51,2.84,11.38.12,4.11.37,10.06.95,17.59-.64,1.09-1.26,2.18-1.9,3.27l.95,3.79h2.84v4.77l18.29,28.89h-50.45Z"/><path class="cls-1" d="M.77,149.44v-10.18h2.46v4.31h.13l3.37-4.31h2.9l-3.61,4.54,3.67,5.64h-2.94l-2.54-4-.98,1.24v2.76H.77Z"/><path class="cls-1" d="M12.8,149.44h-2.64l3.44-10.18h3.28l3.44,10.18h-2.65l-2.39-7.62h-.08l-2.39,7.62ZM12.45,145.43h5.53v1.87h-5.53v-1.87Z"/><path class="cls-1" d="M30.07,139.26v10.18h-2.09l-4.05-5.88h-.06v5.88h-2.46v-10.18h2.12l4.01,5.87h.08v-5.87h2.46Z"/><path class="cls-1" d="M41.22,144.35c0,1.12-.22,2.07-.65,2.85s-1.01,1.37-1.75,1.77c-.73.41-1.56.61-2.47.61s-1.74-.2-2.47-.61c-.73-.41-1.31-1-1.74-1.78-.43-.78-.64-1.72-.64-2.84s.21-2.07.64-2.85c.43-.78,1.01-1.37,1.74-1.78s1.56-.61,2.47-.61,1.73.2,2.47.61c.73.4,1.32,1,1.75,1.78.43.78.65,1.73.65,2.85ZM38.7,144.35c0-.66-.09-1.22-.28-1.68-.19-.46-.46-.8-.81-1.04s-.77-.35-1.26-.35-.91.12-1.26.35-.62.58-.81,1.04c-.19.46-.28,1.02-.28,1.68s.09,1.22.28,1.68c.19.46.46.8.81,1.04s.77.35,1.26.35.91-.12,1.26-.35.62-.58.81-1.04c.19-.46.28-1.02.28-1.68Z"/><path class="cls-1" d="M51.32,139.26v10.18h-2.09l-4.05-5.88h-.06v5.88h-2.46v-10.18h2.12l4.01,5.87h.08v-5.87h2.46Z"/><path class="cls-1" d="M52.86,149.44v-10.18h4.21c.76,0,1.42.15,1.98.44.55.3.98.71,1.29,1.24.3.53.45,1.14.45,1.84s-.15,1.32-.46,1.84c-.31.53-.74.93-1.31,1.22-.57.29-1.24.43-2.02.43h-2.6v-1.94h2.14c.37,0,.68-.06.93-.19.25-.13.44-.31.57-.54.13-.23.19-.51.19-.82s-.06-.59-.19-.82c-.13-.23-.32-.41-.57-.53s-.56-.19-.93-.19h-1.21v8.2h-2.46Z"/><path class="cls-1" d="M61.98,149.44v-10.18h4.21c.76,0,1.42.14,1.98.41.55.27.98.66,1.29,1.17.3.51.45,1.11.45,1.81s-.15,1.3-.46,1.8c-.31.49-.75.87-1.31,1.12-.57.26-1.24.38-2.01.38h-2.66v-1.94h2.2c.37,0,.68-.05.93-.15s.44-.25.57-.45c.13-.2.19-.46.19-.77s-.06-.58-.19-.78c-.13-.21-.32-.36-.57-.47-.25-.1-.56-.16-.93-.16h-1.21v8.2h-2.46ZM67.72,144.78l2.54,4.65h-2.68l-2.49-4.65h2.63Z"/><path class="cls-1" d="M80.86,144.35c0,1.12-.22,2.07-.65,2.85s-1.01,1.37-1.75,1.77c-.73.41-1.56.61-2.47.61s-1.74-.2-2.47-.61c-.73-.41-1.31-1-1.74-1.78-.43-.78-.64-1.72-.64-2.84s.21-2.07.64-2.85c.43-.78,1.01-1.37,1.74-1.78s1.56-.61,2.47-.61,1.73.2,2.47.61c.73.4,1.32,1,1.75,1.78.43.78.65,1.73.65,2.85ZM78.35,144.35c0-.66-.09-1.22-.28-1.68-.19-.46-.46-.8-.81-1.04s-.77-.35-1.26-.35-.91.12-1.26.35-.62.58-.81,1.04c-.19.46-.28,1.02-.28,1.68s.09,1.22.28,1.68c.19.46.46.8.81,1.04s.77.35,1.26.35.91-.12,1.26-.35.62-.58.81-1.04c.19-.46.28-1.02.28-1.68Z"/><path class="cls-1" d="M86.06,149.44h-3.76v-10.18h3.76c1.04,0,1.93.2,2.68.61.75.41,1.33.99,1.74,1.75.41.76.61,1.67.61,2.73s-.2,1.97-.61,2.73c-.41.76-.99,1.35-1.74,1.75-.75.41-1.65.61-2.68.61ZM84.75,147.34h1.21c.57,0,1.05-.1,1.45-.29.4-.19.7-.51.9-.95.2-.44.31-1.02.31-1.76s-.1-1.32-.31-1.75c-.21-.44-.51-.75-.91-.94s-.89-.29-1.47-.29h-1.17v5.99Z"/><path class="cls-1" d="M98.67,139.26h2.46v6.57c0,.76-.18,1.42-.54,1.98-.36.56-.87,1-1.51,1.3-.65.31-1.4.46-2.25.46s-1.62-.15-2.27-.46c-.65-.31-1.15-.74-1.51-1.3-.36-.56-.54-1.22-.54-1.98v-6.57h2.46v6.35c0,.35.08.67.23.94.15.28.37.49.65.65.28.16.6.23.97.23s.69-.08.97-.23c.28-.16.49-.37.65-.65.16-.27.23-.59.23-.94v-6.35Z"/><path class="cls-1" d="M102.67,149.44v-10.18h2.46v4.31h.13l3.37-4.31h2.9l-3.61,4.54,3.67,5.64h-2.94l-2.54-4-.98,1.24v2.76h-2.46Z"/><path class="cls-1" d="M112.17,141.25v-2h8.61v2h-3.09v8.18h-2.43v-8.18h-3.09Z"/><path class="cls-1" d="M124.44,139.26v10.18h-2.46v-10.18h2.46Z"/><path class="cls-1" d="M135.59,144.35c0,1.12-.22,2.07-.65,2.85s-1.01,1.37-1.75,1.77c-.73.41-1.56.61-2.47.61s-1.74-.2-2.47-.61c-.73-.41-1.31-1-1.74-1.78-.43-.78-.64-1.72-.64-2.84s.21-2.07.64-2.85c.43-.78,1.01-1.37,1.74-1.78s1.56-.61,2.47-.61,1.73.2,2.47.61c.73.4,1.32,1,1.75,1.78.43.78.65,1.73.65,2.85ZM133.08,144.35c0-.66-.09-1.22-.28-1.68-.19-.46-.46-.8-.81-1.04s-.77-.35-1.26-.35-.91.12-1.26.35-.62.58-.81,1.04c-.19.46-.28,1.02-.28,1.68s.09,1.22.28,1.68c.19.46.46.8.81,1.04s.77.35,1.26.35.91-.12,1.26-.35.62-.58.81-1.04c.19-.46.28-1.02.28-1.68Z"/><path class="cls-1" d="M145.69,139.26v10.18h-2.09l-4.05-5.88h-.06v5.88h-2.46v-10.18h2.12l4.01,5.87h.08v-5.87h2.46Z"/></svg>