<?xml version="1.0" encoding="UTF-8"?>
<svg id="Layer_1" data-name="Layer 1" xmlns="http://www.w3.org/2000/svg" version="1.1" viewBox="0 0 14638.9 1053.9">
  <defs>
    <style>
      .cls-1 {
        fill: #1e1e1e;
        stroke-width: 0px;
      }

      .cls-2 {
        fill: #000;
        stroke: #000;
        stroke-miterlimit: 10;
      }
    </style>
  </defs>
  <path class="cls-2" d="M7740.5-578.1c4,2.4,8.7,5.7,13.5,10.2,3.5,3.3,6.3,6.6,8.5,9.5.2.6.4,1.5.5,2.5.1,1.6-.2,2.9-.5,3.7,1.4,1.2,3.6,3.1,6.5,5.3,5.1,3.9,7.1,5,7.3,7,0,.8,0,3-4.3,6,.3.7.7,1.3,1,2h1c1.5,0,1.8-.2,2,0,.3.2.3,1.1-1,4,.7.3,1.7.6,3,1,2.1.6,2.6.6,3,1,.6.7.7,2.4-2,7v1c1.1,0,3.6.2,6,2,3.8,2.9,4,7.6,4,9,0,3.1-1.3,5.4-2,6.5-.7,1.2-1.3,2.3-2,3.5l-6,5c-.3.7-.7,1.3-1,2-4.8,9.1-11.9,15.5-19,20,.3,1.3.7,2.7,1,4,3.6-.4,8.4-.3,13,2,2.8,1.4,3.7,2.6,4,3,3,4.2.4,10.2,0,11,3,1.8,5.9,3.7,8.9,5.5h-45.4v-133.7Z"/>
  <path class="cls-2" d="M7844.1-444.3v-6.2l-7.1-27.3c-3.2-2.2-12.5-9.2-16-22-1.6-5.8-1.4-10.9-1-14.4v-5.9h-17.3c-.2-.2-2.7-3-1.7-6.7,1-3.8,4.8-5,5-5h19.4c0-1,.3-2.3.6-4,.4-1.6.6-2.4,1-3,1.6-2.2,4.7-2,5-2,.6,0,1.8.1,3,1,1.1.8,1.5,1.8,2,3,.4,1,1,2.7,1,5,12.7.3,25.3.7,38,1v9.7l-10,.3c1.7.3,4.1,1.1,6,3,2.8,2.9,2.9,6.9,3,12,.1,4.3.4,10.6,1,18.6-.7,1.2-1.3,2.3-2,3.4l1,4h3v5l19.3,30.5h-53.2Z"/>
  <path class="cls-1" d="M7935.7-467.6c3.8,2.3,8.3,5.4,12.8,9.7,3.3,3.1,6,6.2,8.1,9,.2.6.4,1.4.5,2.4,0,1.5-.2,2.8-.5,3.5,1.3,1.1,3.5,2.9,6.2,5,4.9,3.7,6.7,4.7,6.9,6.7,0,.8,0,2.9-4,5.7.3.6.6,1.3.9,1.9h.9c1.4,0,1.7-.2,1.9,0,.3.2.3,1.1-.9,3.8.7.2,1.6.6,2.8.9,2,.6,2.5.6,2.8.9.6.7.6,2.3-1.9,6.6v.9c1,0,3.5.2,5.7,1.9,3.6,2.7,3.8,7.3,3.8,8.5,0,3-1.3,5.1-1.9,6.1-.6,1.1-1.3,2.2-1.9,3.3l-5.7,4.7c-.3.6-.6,1.3-.9,1.9-4.5,8.6-11.3,14.7-18,19,.3,1.3.6,2.5.9,3.8,3.4-.4,7.9-.3,12.3,1.9,2.6,1.3,3.5,2.5,3.8,2.8,2.8,4,.4,9.6,0,10.4,2.8,1.7,5.6,3.5,8.4,5.2h-43v-126.8Z"/>
  <path class="cls-1" d="M8033.9-340.8v-5.9l-6.7-25.9c-3-2.1-11.9-8.8-15.2-20.9-1.5-5.5-1.4-10.3-.9-13.6v-5.6h-16.4c-.1-.2-2.6-2.8-1.6-6.4,1-3.7,4.6-4.7,4.7-4.7h18.4c0-.9.2-2.2.6-3.8.3-1.5.5-2.3.9-2.8,1.5-2,4.5-1.9,4.7-1.9.5,0,1.7.1,2.8.9,1,.8,1.4,1.7,1.9,2.8.4,1,.9,2.6.9,4.7,12,.3,24,.6,36,.9v9.2l-9.5.3c1.6.3,3.9,1,5.7,2.8,2.7,2.8,2.7,6.5,2.8,11.4.1,4.1.4,10.1.9,17.6-.6,1.1-1.3,2.2-1.9,3.3l.9,3.8h2.8v4.8l18.3,28.9h-50.4Z"/>
  <g>
    <path class="cls-1" d="M7935.9-321.6v-10.2h2.5v4.3h.1l3.4-4.3h2.9l-3.6,4.5,3.7,5.6h-2.9l-2.5-4-1,1.2v2.8h-2.5Z"/>
    <path class="cls-1" d="M7948-321.6h-2.6l3.4-10.2h3.3l3.4,10.2h-2.6l-2.4-7.6h0l-2.4,7.6ZM7947.6-325.6h5.5v1.9h-5.5v-1.9Z"/>
    <path class="cls-1" d="M7965.2-331.8v10.2h-2.1l-4.1-5.9h0v5.9h-2.5v-10.2h2.1l4,5.9h0v-5.9h2.5Z"/>
    <path class="cls-1" d="M7976.4-326.7c0,1.1-.2,2.1-.6,2.8s-1,1.4-1.7,1.8c-.7.4-1.6.6-2.5.6s-1.7-.2-2.5-.6c-.7-.4-1.3-1-1.7-1.8-.4-.8-.6-1.7-.6-2.8s.2-2.1.6-2.8c.4-.8,1-1.4,1.7-1.8s1.6-.6,2.5-.6,1.7.2,2.5.6c.7.4,1.3,1,1.7,1.8.4.8.6,1.7.6,2.8ZM7973.9-326.7c0-.7,0-1.2-.3-1.7-.2-.5-.5-.8-.8-1s-.8-.4-1.3-.4-.9.1-1.3.4-.6.6-.8,1c-.2.5-.3,1-.3,1.7s0,1.2.3,1.7c.2.5.5.8.8,1s.8.4,1.3.4.9-.1,1.3-.4.6-.6.8-1c.2-.5.3-1,.3-1.7Z"/>
    <path class="cls-1" d="M7986.5-331.8v10.2h-2.1l-4.1-5.9h0v5.9h-2.5v-10.2h2.1l4,5.9h0v-5.9h2.5Z"/>
    <path class="cls-1" d="M7988-321.6v-10.2h4.2c.8,0,1.4.1,2,.4.6.3,1,.7,1.3,1.2.3.5.5,1.1.5,1.8s-.2,1.3-.5,1.8c-.3.5-.7.9-1.3,1.2-.6.3-1.2.4-2,.4h-2.6v-1.9h2.1c.4,0,.7,0,.9-.2.2-.1.4-.3.6-.5.1-.2.2-.5.2-.8s0-.6-.2-.8c-.1-.2-.3-.4-.6-.5s-.6-.2-.9-.2h-1.2v8.2h-2.5Z"/>
    <path class="cls-1" d="M7997.1-321.6v-10.2h4.2c.8,0,1.4.1,2,.4.6.3,1,.7,1.3,1.2.3.5.5,1.1.5,1.8s-.2,1.3-.5,1.8c-.3.5-.7.9-1.3,1.1-.6.3-1.2.4-2,.4h-2.7v-1.9h2.2c.4,0,.7,0,.9-.1s.4-.2.6-.4c.1-.2.2-.5.2-.8s0-.6-.2-.8c-.1-.2-.3-.4-.6-.5-.3-.1-.6-.2-.9-.2h-1.2v8.2h-2.5ZM8002.9-326.3l2.5,4.7h-2.7l-2.5-4.7h2.6Z"/>
    <path class="cls-1" d="M8016-326.7c0,1.1-.2,2.1-.6,2.8s-1,1.4-1.7,1.8c-.7.4-1.6.6-2.5.6s-1.7-.2-2.5-.6c-.7-.4-1.3-1-1.7-1.8-.4-.8-.6-1.7-.6-2.8s.2-2.1.6-2.8c.4-.8,1-1.4,1.7-1.8s1.6-.6,2.5-.6,1.7.2,2.5.6c.7.4,1.3,1,1.7,1.8.4.8.6,1.7.6,2.8ZM8013.5-326.7c0-.7,0-1.2-.3-1.7-.2-.5-.5-.8-.8-1s-.8-.4-1.3-.4-.9.1-1.3.4-.6.6-.8,1c-.2.5-.3,1-.3,1.7s0,1.2.3,1.7c.2.5.5.8.8,1s.8.4,1.3.4.9-.1,1.3-.4.6-.6.8-1c.2-.5.3-1,.3-1.7Z"/>
    <path class="cls-1" d="M8021.2-321.6h-3.8v-10.2h3.8c1,0,1.9.2,2.7.6.8.4,1.3,1,1.7,1.8.4.8.6,1.7.6,2.7s-.2,2-.6,2.7c-.4.8-1,1.3-1.7,1.8-.8.4-1.6.6-2.7.6ZM8019.9-323.7h1.2c.6,0,1.1,0,1.4-.3.4-.2.7-.5.9-1,.2-.4.3-1,.3-1.8s-.1-1.3-.3-1.8c-.2-.4-.5-.8-.9-.9s-.9-.3-1.5-.3h-1.2v6Z"/>
    <path class="cls-1" d="M8033.8-331.8h2.5v6.6c0,.8-.2,1.4-.5,2-.4.6-.9,1-1.5,1.3-.6.3-1.4.5-2.3.5s-1.6-.2-2.3-.5c-.6-.3-1.1-.7-1.5-1.3-.4-.6-.5-1.2-.5-2v-6.6h2.5v6.4c0,.4,0,.7.2.9.2.3.4.5.6.6.3.2.6.2,1,.2s.7,0,1-.2c.3-.2.5-.4.6-.6.2-.3.2-.6.2-.9v-6.4Z"/>
    <path class="cls-1" d="M8037.8-321.6v-10.2h2.5v4.3h.1l3.4-4.3h2.9l-3.6,4.5,3.7,5.6h-2.9l-2.5-4-1,1.2v2.8h-2.5Z"/>
    <path class="cls-1" d="M8047.3-329.8v-2h8.6v2h-3.1v8.2h-2.4v-8.2h-3.1Z"/>
    <path class="cls-1" d="M8059.6-331.8v10.2h-2.5v-10.2h2.5Z"/>
    <path class="cls-1" d="M8070.7-326.7c0,1.1-.2,2.1-.6,2.8s-1,1.4-1.7,1.8c-.7.4-1.6.6-2.5.6s-1.7-.2-2.5-.6c-.7-.4-1.3-1-1.7-1.8-.4-.8-.6-1.7-.6-2.8s.2-2.1.6-2.8c.4-.8,1-1.4,1.7-1.8s1.6-.6,2.5-.6,1.7.2,2.5.6c.7.4,1.3,1,1.7,1.8.4.8.6,1.7.6,2.8ZM8068.2-326.7c0-.7,0-1.2-.3-1.7-.2-.5-.5-.8-.8-1s-.8-.4-1.3-.4-.9.1-1.3.4-.6.6-.8,1c-.2.5-.3,1-.3,1.7s0,1.2.3,1.7c.2.5.5.8.8,1s.8.4,1.3.4.9-.1,1.3-.4.6-.6.8-1c.2-.5.3-1,.3-1.7Z"/>
    <path class="cls-1" d="M8080.8-331.8v10.2h-2.1l-4.1-5.9h0v5.9h-2.5v-10.2h2.1l4,5.9h0v-5.9h2.5Z"/>
  </g>
  <g>
    <path class="cls-1" d="M71.3,1000.5V57.9h227.8v398.6h12.4L623.1,57.9h268.3l-334.1,420.7,340.1,521.9h-272.5l-234.7-370.5-91.1,115.1v255.4H71.3Z"/>
    <path class="cls-1" d="M1185.1,1000.5h-244.8L1258.3,57.9h303.3l318,942.5h-244.8l-221.4-705.1h-7.4l-220.9,705.1ZM1152.4,629.5h511.8v173h-511.8v-173Z"/>
    <path class="cls-1" d="M2783.4,57.9v942.5h-193.3l-375.1-544h-6v544h-227.8V57.9h196.1l370.9,543.1h7.8V57.9h227.4Z"/>
    <path class="cls-1" d="M3815.7,529.2c0,103.7-20,191.6-59.8,263.7-39.9,72.1-93.8,126.9-161.8,164.3-68,37.4-144.1,56.1-228.5,56.1s-160.9-18.9-228.8-56.6c-67.8-37.7-121.6-92.6-161.3-164.5-39.7-71.9-59.6-159.6-59.6-263s19.9-191.6,59.6-263.7c39.7-72.1,93.5-126.9,161.3-164.3s144.1-56.2,228.8-56.2,160.5,18.7,228.5,56.2c68,37.4,121.9,92.2,161.8,164.3,39.9,72.1,59.8,160,59.8,263.7ZM3582.8,529.2c0-61.4-8.7-113.2-26-155.6-17.3-42.3-42.2-74.4-74.6-96.2s-71.2-32.7-116.7-32.7-83.9,10.9-116.5,32.7-57.5,53.8-74.8,96.2c-17.3,42.3-26,94.2-26,155.6s8.7,113.2,26,155.5c17.3,42.3,42.2,74.4,74.8,96.2s71.3,32.7,116.5,32.7,84.3-10.9,116.7-32.7,57.2-53.8,74.6-96.2c17.3-42.3,26-94.2,26-155.5Z"/>
    <path class="cls-1" d="M4750.4,57.9v942.5h-193.3l-375.1-544h-6v544h-227.8V57.9h196.1l370.9,543.1h7.8V57.9h227.4Z"/>
    <path class="cls-1" d="M4893.1,1000.5V57.9h389.4c70.6,0,131.5,13.7,182.9,41.2,51.4,27.5,91,65.7,119,114.6s41.9,105.8,41.9,170.5-14.2,121.9-42.6,170.5c-28.4,48.6-68.8,86.3-121.3,113s-114.8,40-186.8,40h-240.2v-179.5h197.9c34.4,0,63.1-6,86.3-18,23.2-12,40.7-28.8,52.7-50.4s18-46.9,18-75.7-6-54.4-18-75.7c-12-21.3-29.6-37.8-52.9-49.5s-52-17.5-86.1-17.5h-112.3v758.9h-227.8Z"/>
    <path class="cls-1" d="M5738,1000.5V57.9h389.4c70.6,0,131.5,12.7,182.9,38s91,61.5,119,108.6,41.9,102.9,41.9,167.3-14.3,120.8-42.8,166.4-69,80.2-121.5,104-114.6,35.7-186.4,35.7h-246.2v-179.5h203.9c34.4,0,63.1-4.5,86.3-13.6,23.2-9,40.7-22.9,52.7-41.4s18-42.4,18-71.6-6-53.3-18-72.5c-12-19.2-29.6-33.6-52.9-43.3-23.3-9.7-52-14.5-86.1-14.5h-112.3v758.9h-227.8ZM6268.7,569.7l234.7,430.8h-248.5l-230.1-430.8h243.9Z"/>
    <path class="cls-1" d="M7485.5,529.2c0,103.7-20,191.6-59.8,263.7-39.9,72.1-93.8,126.9-161.8,164.3-68,37.4-144.1,56.1-228.5,56.1s-160.9-18.9-228.8-56.6c-67.8-37.7-121.6-92.6-161.3-164.5-39.7-71.9-59.6-159.6-59.6-263s19.9-191.6,59.6-263.7c39.7-72.1,93.5-126.9,161.3-164.3s144.1-56.2,228.8-56.2,160.5,18.7,228.5,56.2c68,37.4,121.9,92.2,161.8,164.3,39.9,72.1,59.8,160,59.8,263.7ZM7252.6,529.2c0-61.4-8.7-113.2-26-155.6-17.3-42.3-42.2-74.4-74.6-96.2s-71.2-32.7-116.7-32.7-83.9,10.9-116.5,32.7-57.5,53.8-74.8,96.2c-17.3,42.3-26,94.2-26,155.6s8.7,113.2,26,155.5c17.3,42.3,42.2,74.4,74.8,96.2s71.3,32.7,116.5,32.7,84.3-10.9,116.7-32.7,57.2-53.8,74.6-96.2c17.3-42.3,26-94.2,26-155.5Z"/>
    <path class="cls-1" d="M7966.4,1000.5h-348.4V57.9h347.9c96,0,178.8,18.8,248.3,56.4,69.5,37.6,123.1,91.6,160.9,162,37.7,70.4,56.6,154.6,56.6,252.4s-18.8,182.6-56.4,253.1c-37.6,70.6-91.2,124.6-160.9,162.2-69.7,37.6-152.3,56.4-248,56.4ZM7845.9,806.3h111.8c52.8,0,97.5-9,134.2-26.9,36.7-17.9,64.4-47.2,83.3-87.9s28.3-94.9,28.3-162.7-9.5-121.9-28.5-162.2-47-69.5-84-87.5c-37-17.9-82.5-26.9-136.5-26.9h-108.6v554.1Z"/>
    <path class="cls-1" d="M9134.5,57.9h227.3v608c0,70.3-16.7,131.4-50.2,183.4s-80.1,92.2-139.9,120.6-129.3,42.6-208.5,42.6-150-14.2-209.9-42.6-106.3-68.6-139.5-120.6-49.7-113.1-49.7-183.4V57.9h227.8v588.2c0,32.5,7.1,61.5,21.4,87,14.3,25.5,34.3,45.4,60.1,59.8,25.8,14.4,55.7,21.6,89.8,21.6s63.9-7.2,89.5-21.6c25.6-14.4,45.6-34.4,60.1-59.8s21.6-54.5,21.6-87V57.9Z"/>
    <path class="cls-1" d="M9504.5,1000.5V57.9h227.8v398.6h12.4l311.6-398.6h268.3l-334.1,420.7,340.1,521.9h-272.5l-234.7-370.5-91.1,115.1v255.4h-227.8Z"/>
    <path class="cls-1" d="M10383.5,243V57.9h796.7v185h-285.8v757.5h-224.6V243h-286.3Z"/>
    <path class="cls-1" d="M11519.8,57.9v942.5h-227.8V57.9h227.8Z"/>
    <path class="cls-1" d="M12552.1,529.2c0,103.7-20,191.6-59.8,263.7-39.9,72.1-93.8,126.9-161.8,164.3-68,37.4-144.1,56.1-228.5,56.1s-160.9-18.9-228.8-56.6c-67.8-37.7-121.6-92.6-161.3-164.5-39.7-71.9-59.6-159.6-59.6-263s19.9-191.6,59.6-263.7c39.7-72.1,93.5-126.9,161.3-164.3s144.1-56.2,228.8-56.2,160.5,18.7,228.5,56.2c68,37.4,121.9,92.2,161.8,164.3,39.9,72.1,59.8,160,59.8,263.7ZM12319.2,529.2c0-61.4-8.7-113.2-26-155.6-17.3-42.3-42.2-74.4-74.6-96.2s-71.2-32.7-116.7-32.7-83.9,10.9-116.5,32.7-57.5,53.8-74.8,96.2c-17.3,42.3-26,94.2-26,155.6s8.7,113.2,26,155.5c17.3,42.3,42.2,74.4,74.8,96.2s71.3,32.7,116.5,32.7,84.3-10.9,116.7-32.7,57.2-53.8,74.6-96.2c17.3-42.3,26-94.2,26-155.5Z"/>
    <path class="cls-1" d="M13486.8,57.9v942.5h-193.3l-375.1-544h-6v544h-227.8V57.9h196.1l370.9,543.1h7.8V57.9h227.4Z"/>
  </g>
  <g>
    <path class="cls-1" d="M13486.8,56.6c28.1,16.9,61.5,40.2,95.3,72.3,24.6,23.3,44.3,46.3,60,67.1,1.6,4.5,3,10.5,3.5,17.6.7,11.4-1.6,20.7-3.5,26.4,10,8.5,25.8,21.7,45.9,37.1,36.1,27.8,50,35.3,51.2,49.6.5,5.8-.4,21.4-30.1,42.1,2.3,4.7,4.7,9.4,7.1,14.1h7.1c10.4-.2,12.6-1.1,14.1,0,2.3,1.8,2.5,8-7.1,28.2,4.9,1.8,12.1,4.4,21.2,7.1,14.8,4.3,18.5,4.2,21.2,7.1,4.5,4.9,4.7,17.2-14.1,49.4v7.1c7.6.1,25.7,1.5,42.4,14.1,27,20.5,28.4,54,28.2,63.5-.3,22-9.3,38.3-14.1,45.7-4.7,8.3-9.4,16.6-14.1,24.8l-42.4,35.3c-2.2,4.7-4.6,9.4-7.1,14.1-33.8,63.9-83.9,109.1-134.1,141.2,2.3,9.4,4.7,18.8,7.1,28.2,25.3-2.8,58.9-1.9,91.8,14.1,19.6,9.6,26.3,18.4,28.2,21.2,21,29.8,2.7,71.8,0,77.6,20.9,12.9,41.9,25.9,62.8,38.8h-320.4V56.6Z"/>
    <path class="cls-1" d="M14218,1000.7v-43.6l-50-192.9c-22.6-15.5-88.5-65.2-112.9-155.3-11.1-40.8-10.1-76.8-7.1-101.5v-41.7h-122c-1.1-1.1-19.1-20.9-12.1-47.4,7.3-27.2,34.2-35,35.3-35.3h136.7c.6-6.8,1.8-16.6,4.4-28.2,2.5-11.2,3.9-16.8,7.1-21.2,11.2-15.2,33.5-14.3,35.3-14.1,3.9.2,12.8.8,21.2,7.1,7.6,5.6,10.7,12.8,14.1,21.2,3,7.3,6.8,19.3,7.1,35.3,89.4,2.3,178.8,4.7,268.2,7.1v68.6l-70.6,2c12.2,2.3,29.1,7.6,42.4,21.2,20,20.6,20.1,48.4,21.2,84.7.9,30.6,2.8,74.9,7.1,130.9-4.7,8.1-9.4,16.2-14.1,24.4l7.1,28.2h21.2v35.5l136.2,215.1h-375.5Z"/>
  </g>
</svg>