<?xml version="1.0" encoding="UTF-8"?><svg id="Layer_1" xmlns="http://www.w3.org/2000/svg" width="2889.96mm" height="371.79mm" viewBox="0 0 8192 1053.9"><defs><style>.cls-1{fill:#1e1e1e;stroke-width:0px;}</style></defs><path class="cls-1" d="M38.84,784.91V271.44h124.09v217.13h6.75l169.74-217.13h146.15l-181.99,229.17,185.26,284.3h-148.44l-127.85-201.82-49.63,62.7v139.12H38.84Z"/><path class="cls-1" d="M645.56,784.91h-133.35l173.22-513.46h165.22l173.22,513.41h-133.35l-120.6-384.09h-4.03l-120.33,384.09v.05ZM627.75,582.81h278.79v94.24h-278.79v-94.24h0Z"/><path class="cls-1" d="M1516.21,271.44v513.41h-105.3l-204.33-296.33h-3.27v296.33h-124.09V271.44h106.82l202.04,295.84h4.25v-295.84h123.87Z"/><path class="cls-1" d="M2078.53,528.18c0,56.49-10.89,104.37-32.57,143.65-21.73,39.28-51.1,69.13-88.14,89.5-37.04,20.37-78.5,30.56-124.47,30.56s-87.65-10.3-124.63-30.83c-36.93-20.54-66.24-50.44-87.87-89.61s-32.47-86.94-32.47-143.26,10.84-104.37,32.47-143.65c21.63-39.28,50.93-69.13,87.87-89.5,36.93-20.37,78.5-30.61,124.63-30.61s87.43,10.19,124.47,30.61c37.04,20.37,66.4,50.22,88.14,89.5,21.73,39.28,32.57,87.16,32.57,143.65ZM1951.66,528.18c0-33.45-4.74-61.66-14.16-84.76-9.42-23.04-22.99-40.53-40.64-52.4s-38.78-17.81-63.57-17.81-45.7,5.94-63.46,17.81c-17.76,11.88-31.32,29.31-40.75,52.4-9.42,23.04-14.16,51.31-14.16,84.76s4.74,61.66,14.16,84.71,22.99,40.53,40.75,52.4,38.84,17.81,63.46,17.81,45.92-5.94,63.57-17.81,31.16-29.31,40.64-52.4c9.42-23.04,14.16-51.31,14.16-84.71h0Z"/><path class="cls-1" d="M2587.69,271.44v513.41h-105.3l-204.33-296.33h-3.27v296.33h-124.09V271.44h106.82l202.04,295.84h4.25v-295.84h123.87Z"/><path class="cls-1" d="M2665.43,784.91V271.44h212.12c38.46,0,71.63,7.46,99.63,22.44,28,14.98,49.57,35.79,64.82,62.43,15.25,26.64,22.82,57.63,22.82,92.88s-7.74,66.4-23.21,92.88c-15.47,26.47-37.48,47.01-66.08,61.55s-62.54,21.79-101.76,21.79h-130.84v-97.78h107.8c18.74,0,34.37-3.27,47.01-9.81,12.64-6.54,22.17-15.69,28.71-27.45s9.81-25.55,9.81-41.24-3.27-29.63-9.81-41.24c-6.54-11.6-16.12-20.59-28.82-26.96s-28.33-9.53-46.9-9.53h-61.17v413.4h-124.09l-.05.11Z"/><path class="cls-1" d="M3125.67,784.91V271.44h212.12c38.46,0,71.63,6.92,99.63,20.7,28,13.78,49.57,33.5,64.82,59.16s22.82,56.05,22.82,91.13-7.79,65.8-23.31,90.64-37.59,43.69-66.18,56.65-62.43,19.45-101.54,19.45h-134.11v-97.78h111.07c18.74,0,34.37-2.45,47.01-7.41,12.64-4.9,22.17-12.47,28.71-22.55s9.81-23.1,9.81-39-3.27-29.03-9.81-39.49-16.12-18.3-28.82-23.59c-12.69-5.28-28.33-7.9-46.9-7.9h-61.17v413.4h-124.09l-.05.05ZM3414.76,550.24l127.85,234.67h-135.37l-125.34-234.67h132.86Z"/><path class="cls-1" d="M4077.59,528.18c0,56.49-10.89,104.37-32.57,143.65-21.73,39.28-51.1,69.13-88.14,89.5-37.04,20.37-78.5,30.56-124.47,30.56s-87.65-10.3-124.63-30.83c-36.93-20.54-66.24-50.44-87.87-89.61-21.63-39.17-32.47-86.94-32.47-143.26s10.84-104.37,32.47-143.65,50.93-69.13,87.87-89.5c36.93-20.37,78.5-30.61,124.63-30.61s87.43,10.19,124.47,30.61c37.04,20.37,66.4,50.22,88.14,89.5s32.57,87.16,32.57,143.65ZM3950.72,528.18c0-33.45-4.74-61.66-14.16-84.76-9.42-23.04-22.99-40.53-40.64-52.4s-38.78-17.81-63.57-17.81-45.7,5.94-63.46,17.81c-17.76,11.88-31.32,29.31-40.75,52.4-9.42,23.04-14.16,51.31-14.16,84.76s4.74,61.66,14.16,84.71,22.99,40.53,40.75,52.4,38.84,17.81,63.46,17.81,45.92-5.94,63.57-17.81,31.16-29.31,40.64-52.4c9.42-23.04,14.16-51.31,14.16-84.71h0Z"/><path class="cls-1" d="M4339.55,784.91h-189.78V271.44h189.51c52.29,0,97.4,10.24,135.26,30.72,37.86,20.48,67.06,49.9,87.65,88.25,20.54,38.35,30.83,84.22,30.83,137.49s-10.24,99.47-30.72,137.87c-20.48,38.46-49.68,67.87-87.65,88.36-37.97,20.48-82.96,30.72-135.09,30.72v.05ZM4273.91,679.12h60.9c28.76,0,53.11-4.9,73.1-14.65s35.08-25.71,45.38-47.88,15.42-51.7,15.42-88.63-5.17-66.4-15.52-88.36-25.6-37.86-45.76-47.66c-20.16-9.75-44.94-14.65-74.36-14.65h-59.16v301.84h0Z"/><path class="cls-1" d="M4975.85,271.44h123.82v331.2c0,38.29-9.1,71.58-27.35,99.9s-43.63,50.22-76.21,65.69-70.43,23.21-113.58,23.21-81.71-7.74-114.34-23.21-57.9-37.37-75.99-65.69-27.07-61.61-27.07-99.9v-331.2h124.09v320.41c0,17.7,3.87,33.5,11.66,47.39,7.79,13.89,18.68,24.73,32.74,32.57,14.05,7.84,30.34,11.77,48.92,11.77s34.81-3.92,48.75-11.77c13.94-7.84,24.84-18.74,32.74-32.57s11.77-29.69,11.77-47.39v-320.41h.06Z"/><path class="cls-1" d="M5177.4,784.91V271.44h124.09v217.13h6.75l169.74-217.13h146.15l-181.99,229.17,185.26,284.3h-148.44l-127.85-201.82-49.62,62.7v139.12h-124.09Z"/><path class="cls-1" d="M5656.22,372.27v-100.83h433.99v100.78h-155.68v412.63h-122.35v-412.58h-155.96Z"/><path class="cls-1" d="M6275.2,271.44v513.41h-124.09V271.44h124.09Z"/><path class="cls-1" d="M6837.52,528.18c0,56.49-10.89,104.37-32.57,143.65-21.74,39.28-51.1,69.13-88.14,89.5-37.04,20.37-78.5,30.56-124.47,30.56s-87.65-10.3-124.63-30.83c-36.93-20.54-66.24-50.44-87.87-89.61s-32.47-86.94-32.47-143.26,10.84-104.37,32.47-143.65c21.63-39.28,50.93-69.13,87.87-89.5,36.93-20.37,78.5-30.61,124.63-30.61s87.43,10.19,124.47,30.61c37.04,20.37,66.4,50.22,88.14,89.5,21.74,39.28,32.57,87.16,32.57,143.65ZM6710.66,528.18c0-33.45-4.74-61.66-14.16-84.76-9.42-23.04-22.99-40.53-40.64-52.4s-38.78-17.81-63.57-17.81-45.7,5.94-63.46,17.81c-17.76,11.88-31.32,29.31-40.75,52.4-9.42,23.04-14.16,51.31-14.16,84.76s4.74,61.66,14.16,84.71,22.99,40.53,40.75,52.4,38.84,17.81,63.46,17.81,45.92-5.94,63.57-17.81,31.16-29.31,40.64-52.4c9.42-23.04,14.16-51.31,14.16-84.71h0Z"/><path class="cls-1" d="M7346.69,271.44v513.41h-105.3l-204.33-296.33h-3.27v296.33h-124.09V271.44h106.82l202.04,295.84h4.25v-295.84h123.87,0Z"/><path class="cls-1" d="M7341.96,270.74c15.31,9.21,33.5,21.9,51.91,39.38,13.4,12.69,24.13,25.22,32.68,36.55.87,2.45,1.63,5.72,1.91,9.59.38,6.21-.87,11.28-1.91,14.38,5.45,4.63,14.05,11.82,25,20.21,19.66,15.14,27.24,19.23,27.89,27.02.27,3.16-.22,11.66-16.4,22.93,1.25,2.56,2.56,5.12,3.87,7.68h3.87c5.67-.11,6.86-.6,7.68,0,1.25.98,1.36,4.36-3.87,15.36,2.67.98,6.59,2.4,11.55,3.87,8.06,2.34,10.08,2.29,11.55,3.87,2.45,2.67,2.56,9.37-7.68,26.91v3.87c4.14.05,14,.82,23.1,7.68,14.71,11.17,15.47,29.42,15.36,34.59-.16,11.98-5.07,20.86-7.68,24.89-2.56,4.52-5.12,9.04-7.68,13.51l-23.1,19.23c-1.2,2.56-2.51,5.12-3.87,7.68-18.41,34.81-45.7,59.43-73.05,76.92,1.25,5.12,2.56,10.24,3.87,15.36,13.78-1.53,32.08-1.04,50.01,7.68,10.68,5.23,14.33,10.02,15.36,11.55,11.44,16.23,1.47,39.11,0,42.27,11.39,7.03,22.82,14.11,34.21,21.14h-174.53V270.74h-.06Z"/><path class="cls-1" d="M7740.27,785.02v-23.75l-27.24-105.08c-12.31-8.44-48.21-35.52-61.5-84.6-6.05-22.23-5.5-41.84-3.87-55.29v-22.72h-66.46c-.6-.6-10.4-11.38-6.59-25.82,3.98-14.82,18.63-19.07,19.23-19.23h74.46c.33-3.7.98-9.04,2.4-15.36,1.36-6.1,2.12-9.15,3.87-11.55,6.1-8.28,18.25-7.79,19.23-7.68,2.12.11,6.97.44,11.55,3.87,4.14,3.05,5.83,6.97,7.68,11.55,1.63,3.98,3.7,10.51,3.87,19.23,48.7,1.25,97.4,2.56,146.1,3.87v37.37l-38.46,1.09c6.65,1.25,15.85,4.14,23.1,11.55,10.89,11.22,10.95,26.37,11.55,46.14.49,16.67,1.53,40.8,3.87,71.31-2.56,4.41-5.12,8.82-7.68,13.29l3.87,15.36h11.55v19.34l74.19,117.17h-204.55l-.16-.05Z"/></svg>